# AST/ASF file generated using VICON BodyLanguage
# -----------------------------------------------
:version 1.10
:name VICON
:units
  mass 1.0
  length 0.45
  angle deg
:documentation
   .ast/.asf automatically generated from VICON data using
   VICON BodyBuilder and BodyLanguage model FoxedUp or BRILLIANT.MOD
:root
   order TX TY TZ RX RY RZ
   axis XYZ
   position 0 0 0  
   orientation 0 0 0 
:bonedata
  begin
     id 1 
     name lhipjoint
     direction 0.646657 -0.683706 0.338203 
     length 2.4948 
     axis 0 0 0  XYZ
  end
  begin
     id 2 
     name lfemur
     direction 0.34202 -0.939693 0  
     length 6.79491  
     axis 0 0 20  XYZ
    dof rx ry rz
    limits (-160.0 20.0)
           (-70.0 70.0)
           (-60.0 70.0)
  end
  begin
     id 3 
     name ltibia
     direction 0.34202 -0.939693 0   
     length 7.56807   
     axis 0 0 20   XYZ
    dof rx
    limits (-10.0 170.0)
  end
  begin
     id 4 
     name lfoot
     direction 0.0679796 -0.186772 0.980048   
     length 2.53018   
     axis -90 7.62852e-016 20   XYZ
    dof rx rz
    limits (-45.0 90.0)
           (-70.0 20.0)
  end
  begin
     id 5 
     name ltoes
     direction 1.53625e-011 -4.21881e-011 1   
     length 1.26912   
     axis -90 7.62852e-016 20   XYZ
    dof rx
    limits (-90.0 20.0)
  end
  begin
     id 6 
     name rhipjoint
     direction -0.618868 -0.704065 0.348274   
     length 2.42265  
     axis 0 0 0  XYZ 
  end
  begin
     id 7 
     name rfemur
     direction -0.34202 -0.939693 0   
     length 6.73814   
     axis 0 0 -20   XYZ
    dof rx ry rz
    limits (-160.0 20.0)
           (-70.0 70.0)
           (-70.0 60.0)
  end
  begin
     id 8 
     name rtibia
     direction -0.34202 -0.939693 0   
     length 7.66799   
     axis 0 0 -20   XYZ
    dof rx
    limits (-10.0 170.0)
 end
 begin
     id 9 
     name rfoot
     direction -0.0727352 -0.199838 0.977125   
     length 2.57224  
     axis -90 -7.62852e-016 -20   XYZ
    dof rx rz
    limits (-45.0 90.0)
           (-20.0 70.0)
  end
  begin
     id 10 
     name rtoes
     direction -1.53501e-011 -4.21858e-011 1   
     length 1.28858   
     axis -90 -7.62852e-016 -20   XYZ
    dof rx
    limits (-90.0 20.0)
  end
  begin
     id 11 
     name lowerback
     direction -0.0172471 0.995767 -0.0902851   
     length 2.20206   
     axis 0 0 0   XYZ
    dof rx ry rz
    limits (-20.0 45.0)
           (-30.0 30.0)
           (-30.0 30.0)
  end
  begin
     id 12 
     name upperback
     direction -0.000110737 0.999714 0.0239043   
     length 2.19523   
     axis 0 0 0   XYZ
    dof rx ry rz
    limits (-20.0 45.0)
           (-30.0 30.0)
           (-30.0 30.0)
  end
  begin
     id 13 
     name thorax
     direction 0.00704869 0.997783 0.0661741   
     length 2.21977   
     axis 0 0 0   XYZ
    dof rx ry rz
    limits (-20.0 45.0)
           (-30.0 30.0)
           (-30.0 30.0)
  end
  begin
     id 14 
     name lowerneck
     direction -0.00407501 0.995527 0.0943846   
     length 1.83142   
     axis 0 0 0   XYZ
    dof rx ry rz
    limits (-20.0 45.0)
           (-30.0 30.0)
           (-30.0 30.0)
  end
  begin
     id 15 
     name upperneck
     direction 0.0640586 0.986486 -0.150807   
     length 1.84616   
     axis 0 0 0   XYZ
    dof rx ry rz
    limits (-20.0 45.0)
           (-30.0 30.0)
           (-30.0 30.0)
  end
  begin
     id 16
     name head
     direction 0.0188017 0.99791 -0.0618239  
     length 1.85932  
     axis 0 0 0   XYZ
    dof rx ry rz
    limits (-20.0 45.0)
           (-30.0 30.0)
           (-30.0 30.0)
  end
  begin
     id 17 
     name lclavicle
     direction 0.976074 0.206905 0.066852  
     length 3.81043  
     axis 0 0 0   XYZ
    dof ry rz
    limits (-20.0 10.0)
           (0.0 20.0)
  end
  begin
     id 18 
     name lhumerus
     direction 1 -4.48971e-011 1.86916e-027   
     length 5.37587   
     axis 180 -30 -90   XYZ
    dof rx ry rz
    limits (-60.0 90.0)
           (-90.0 90.0)
           (-90.0 90.0)
  end
  begin
     id 19
     name lradius
     direction 1 -4.48968e-011 1.69187e-027   
     length 3.35977   
     axis 180 -30 -90   XYZ
    dof rx
    limits (-10.0 170.0)
  end
  begin
     id 20
     name lwrist
     direction 1 -4.48968e-011 5.8978e-027   
     length 1.67988   
     axis -3.27506e-015 90 90   XYZ
    dof ry
    limits (-180.0 0.0)
 end
  begin
     id 21 
     name lhand
     direction 1 -4.49028e-011 1.18071e-026   
     length 0.561859   
     axis -7.52654e-015 90 90   XYZ
    dof rx rz
    limits (-90.0 90.0)
           (-45.0 45.0)
  end
  begin
     id 22 
     name lfingers
     direction 1 -4.48927e-011 2.35758e-026   
     length 0.452985   
     axis -1.50534e-014 90 90   XYZ
    dof rx
    limits (0.0 90.0)
  end
  begin
     id 23
     name lthumb
     direction 0.707107 -6.34898e-011 0.707107   
     length 0.650399   
     axis -90 45 5.69224e-014   XYZ
    dof rx rz
    limits (-45.0 45.0)
           (-45.0 45.0)
  end
  begin
     id 24 
     name rclavicle
     direction -0.988403 0.151789 0.00439714   
     length 3.6942  
     axis 0 0 0   XYZ 
    dof ry rz
    limits (-10.0 20.0)
           (-20.0 0.0)
  end
  begin
     id 25 
     name rhumerus
     direction -1 -4.48978e-011 1.62495e-027  
     length 5.22819   
     axis 180 30 90   XYZ
    dof rx ry rz
    limits (-90.0 60.0)
           (-90.0 90.0)
           (-90.0 90.0)
  end
  begin
     id 26 
     name rradius
     direction -1 -4.48961e-011 3.47796e-027   
     length 3.40764   
     axis 180 30 90   XYZ
    dof rx
    limits (-10.0 170.0)
  end
  begin
     id 27 
     name rwrist
     direction -1 -4.48949e-011 5.89602e-027   
     length 1.70382   
     axis -3.27506e-015 -90 -90   XYZ
    dof ry
    limits (-180.0 0.0)
  end
  begin
     id 28
     name rhand
     direction -1 -4.48977e-011 1.17973e-026   
     length 0.583255   
     axis -7.52654e-015 -90 -90   XYZ
    dof rx rz
    limits (-90.0 90.0)
           (-45.0 45.0)
  end
  begin
     id 29
     name rfingers
     direction -1 -4.49099e-011 2.36408e-026   
     length 0.470235   
     axis -1.50534e-014 -90 -90   XYZ
    dof rx
    limits (0.0 90.0)
  end
  begin
     id 30
     name rthumb
     direction -0.707107 -6.35011e-011 0.707107   
     length 0.675167   
     axis -90 -45 -5.69224e-014   XYZ
    dof rx rz
    limits (-45.0 45.0)
           (-45.0 45.0)
  end
:hierarchy
  begin
    root lhipjoint rhipjoint lowerback
    lhipjoint lfemur
    lfemur ltibia
    ltibia lfoot
    lfoot ltoes
    rhipjoint rfemur
    rfemur rtibia
    rtibia rfoot
    rfoot rtoes
    lowerback upperback
    upperback thorax
    thorax lowerneck lclavicle rclavicle
    lowerneck upperneck
    upperneck head
    lclavicle lhumerus
    lhumerus lradius
    lradius lwrist
    lwrist lhand lthumb
    lhand lfingers
    rclavicle rhumerus
    rhumerus rradius
    rradius rwrist
    rwrist rhand rthumb
    rhand rfingers
  end

#!OML:ASF G:\JayActor3\Patient Classification 1\Patient 1\Session 2\male.ASF
:FULLY-SPECIFIED
:DEGREES
1
root 47.7653 16.8059 -6.76963 71.3243 -88.3283 -69.4795
lowerback -4.58881 -0.294495 -0.131569
upperback 2.90523 -0.446665 0.891867
thorax 5.596 -0.251403 0.957053
lowerneck -6.93177 -7.17063 -7.37745
upperneck 5.5083 -9.89758 11.8393
head 3.7445 -4.63521 4.21797
rclavicle -6.16543e-015 -4.72114e-016
rhumerus -29.73 -8.28524 -84.9455
rradius 25.5434
rwrist -1.99567
rhand -22.4653 5.46789
rfingers 7.12502
rthumb 3.95942 -24.4751
lclavicle -6.16543e-015 -4.72114e-016
lhumerus -29.2581 4.39018 88.0843
lradius 25.8941
lwrist 7.00501
lhand -19.2238 16.5369
lfingers 7.12502
lthumb 7.08917 46.3982
rfemur -10.7938 -1.8438 23.6425
rtibia 31.1805
rfoot -23.6581 -9.30743
rtoes 17.5907
lfemur -3.28019 2.06383 -18.9648
ltibia 18.8233
lfoot -15.7742 10.6092
ltoes -2.23726
2
root 47.7629 16.8059 -6.76975 70.3616 -88.3418 -68.5119
lowerback -4.60004 -0.304119 -0.164893
upperback 2.90032 -0.456883 0.889045
thorax 5.59771 -0.257596 0.971836
lowerneck -6.9545 -7.1329 -7.35059
upperneck 5.46415 -9.84244 11.8289
head 3.7278 -4.60806 4.2146
rclavicle -2.64632e-015 1.19271e-015
rhumerus -29.7275 -8.26721 -84.9476
rradius 25.5459
rwrist -1.97679
rhand -22.4488 5.4215
rfingers 7.12502
rthumb 3.97539 -24.5212
lclavicle -2.64632e-015 1.19271e-015
lhumerus -29.2622 4.37598 88.0973
lradius 25.8943
lwrist 7.02488
lhand -19.2058 16.6328
lfingers 7.12502
lthumb 7.10646 46.4935
rfemur -10.7979 -1.86233 23.6183
rtibia 31.1981
rfoot -23.6582 -9.32972
rtoes 17.453
lfemur -3.26118 2.00627 -18.9911
ltibia 18.7891
lfoot -15.7915 10.6418
ltoes -2.14905
3
root 47.7626 16.8057 -6.76895 70.3593 -88.3489 -68.4891
lowerback -4.60303 -0.30621 -0.161622
upperback 2.88626 -0.459385 0.885035
thorax 5.58463 -0.258456 0.965599
lowerneck -6.92217 -7.15576 -7.38581
upperneck 5.49519 -9.87828 11.8621
head 3.73875 -4.62575 4.22827
rclavicle 3.46631e-015 -1.01877e-015
rhumerus -29.7366 -8.24441 -84.9647
rradius 25.5576
rwrist -2.02581
rhand -22.4658 5.44429
rfingers 7.12502
rthumb 3.95895 -24.4987
lclavicle 3.46631e-015 -1.01877e-015
lhumerus -29.2614 4.43569 88.0812
lradius 25.8844
lwrist 6.96382
lhand -19.2177 16.518
lfingers 7.12502
lthumb 7.09497 46.3791
rfemur -10.8189 -1.87856 23.6046
rtibia 31.1973
rfoot -23.6559 -9.29479
rtoes 17.5252
lfemur -3.27892 2.00889 -19.0038
ltibia 18.7934
lfoot -15.8095 10.6087
ltoes -2.025
4
root 47.76 16.8053 -6.7701 70.5767 -88.3241 -68.7161
lowerback -4.60344 -0.296815 -0.150861
upperback 2.88763 -0.448045 0.892394
thorax 5.58608 -0.252628 0.96826
lowerneck -6.95315 -7.14735 -7.35622
upperneck 5.49386 -9.86544 11.8367
head 3.73943 -4.61868 4.21577
rclavicle -6.42944e-016 4.52235e-015
rhumerus -29.7355 -8.26321 -84.9619
rradius 25.5537
rwrist -2.00715
rhand -22.4559 5.46409
rfingers 7.12502
rthumb 3.96849 -24.4787
lclavicle -6.42944e-016 4.52235e-015
lhumerus -29.259 4.39601 88.0959
lradius 25.885
lwrist 6.98013
lhand -19.2232 16.5222
lfingers 7.12502
lthumb 7.08968 46.3835
rfemur -10.7963 -1.83009 23.6434
rtibia 31.194
rfoot -23.6883 -9.34366
rtoes 17.5133
lfemur -3.26775 1.99962 -18.9711
ltibia 18.7959
lfoot -15.8024 10.6434
ltoes -2.14683
5
root 47.758 16.8051 -6.77073 70.6452 -88.3103 -68.7862
lowerback -4.60444 -0.293848 -0.146702
upperback 2.8845 -0.444569 0.896877
thorax 5.58331 -0.250821 0.970905
lowerneck -6.95694 -7.14544 -7.35194
upperneck 5.49255 -9.86297 11.8365
head 3.7392 -4.6173 4.21511
rclavicle 2.37299e-015 3.60297e-015
rhumerus -29.7386 -8.25803 -84.9681
rradius 25.558
rwrist -2.01343
rhand -22.4589 5.4741
rfingers 7.12502
rthumb 3.96567 -24.4687
lclavicle 2.37299e-015 3.60297e-015
lhumerus -29.2559 4.39554 88.0997
lradius 25.8766
lwrist 6.9709
lhand -19.2235 16.5056
lfingers 7.12502
lthumb 7.08945 46.3668
rfemur -10.783 -1.80251 23.6643
rtibia 31.1861
rfoot -23.7054 -9.37181
rtoes 17.5052
lfemur -3.26964 1.98811 -18.9541
ltibia 18.8091
lfoot -15.8078 10.6557
ltoes -2.17676
6
root 47.7559 16.8048 -6.77146 70.7501 -88.293 -68.8944
lowerback -4.60397 -0.29052 -0.139722
upperback 2.88149 -0.440885 0.902593
thorax 5.5798 -0.248836 0.973269
lowerneck -6.95434 -7.14685 -7.35216
upperneck 5.49114 -9.86529 11.8402
head 3.73879 -4.61846 4.2162
rclavicle -5.32681e-015 9.34288e-015
rhumerus -29.7427 -8.24964 -84.9754
rradius 25.5622
rwrist -2.02436
rhand -22.4657 5.49304
rfingers 7.12502
rthumb 3.95907 -24.4499
lclavicle -5.32681e-015 9.34288e-015
lhumerus -29.2533 4.3924 88.1042
lradius 25.8673
lwrist 6.96439
lhand -19.2256 16.4818
lfingers 7.12502
lthumb 7.08741 46.3431
rfemur -10.7643 -1.76951 23.6905
rtibia 31.1714
rfoot -23.7235 -9.40552
rtoes 17.5008
lfemur -3.27473 1.98114 -18.9319
ltibia 18.8308
lfoot -15.811 10.6645
ltoes -2.22642
7
root 47.754 16.8047 -6.77215 70.7659 -88.2757 -68.9129
lowerback -4.60294 -0.287955 -0.133524
upperback 2.87774 -0.438128 0.907949
thorax 5.57523 -0.247323 0.975614
lowerneck -6.95077 -7.14665 -7.3528
upperneck 5.48629 -9.86513 11.8444
head 3.73699 -4.61849 4.21777
rclavicle 2.09966e-015 -7.15625e-015
rhumerus -29.7463 -8.23919 -84.9835
rradius 25.5659
rwrist -2.03399
rhand -22.4734 5.5105
rfingers 7.12502
rthumb 3.95163 -24.4326
lclavicle 2.09966e-015 -7.15625e-015
lhumerus -29.2523 4.38225 88.1115
lradius 25.8586
lwrist 6.97044
lhand -19.2076 16.4853
lfingers 7.12502
lthumb 7.10479 46.346
rfemur -10.7476 -1.73931 23.7155
rtibia 31.1588
rfoot -23.7431 -9.43752
rtoes 17.4965
lfemur -3.2784 1.97349 -18.9106
ltibia 18.8475
lfoot -15.8119 10.6707
ltoes -2.26827
